<svg xmlns="http://www.w3.org/2000/svg" width="1440" height="144" viewBox="0 0 1440 144" version="1.1"><path d="M -0 54.421 L -0 108.841 2.750 109.415 C 15.391 112.054, 82.887 120.266, 122 123.924 C 216.699 132.780, 313.382 137.798, 472 142.093 C 532.714 143.736, 824.984 144.420, 903.500 143.102 C 1103.250 139.749, 1242.660 132.528, 1359.890 119.462 C 1393.245 115.744, 1438.216 109.602, 1439.956 108.527 C 1440.661 108.092, 1441 90.352, 1441 53.941 L 1441 0 720.500 0 L 0 0 -0 54.421 M 0.466 55 C 0.466 84.975, 0.594 97.237, 0.749 82.250 C 0.905 67.262, 0.905 42.737, 0.749 27.750 C 0.594 12.762, 0.466 25.025, 0.466 55" stroke="none" fill="#fffcfc" fill-rule="evenodd"/><path d="" stroke="none" fill="#fcfcfc" fill-rule="evenodd"/></svg>