<svg xmlns="http://www.w3.org/2000/svg" width="437" height="223" viewBox="0 0 437 223" version="1.1"><path d="M 100.951 1.547 C 58.407 9.253, 24.637 41.554, 9.056 89.447 C 2.738 108.869, 0.589 122.381, 0.541 143 L 0.500 160.500 3.590 167.020 C 17.719 196.834, 66.798 215.999, 144.395 222.002 C 161.013 223.288, 207.987 223.288, 224.605 222.002 C 273.613 218.211, 309.028 209.358, 344.500 192.031 C 392.855 168.411, 424.420 134.332, 434.264 95.117 C 435.934 88.463, 436.435 83.424, 436.463 73 L 436.500 59.500 434.118 55.031 C 430.428 48.108, 427.055 44.234, 420 38.812 C 392.719 17.849, 330.871 5.280, 234 1.012 C 199.604 -0.504, 110.288 -0.144, 100.951 1.547" stroke="none" fill="#fffcfc" fill-rule="evenodd"/></svg>