<svg xmlns="http://www.w3.org/2000/svg" width="1440" height="631" viewBox="0 0 1440 631" version="1.1"><path d="M 1 296.094 L 1 592.188 6.250 591.537 C 9.138 591.178, 13.750 590.491, 16.500 590.009 C 23.290 588.818, 32.888 587.348, 42.500 586.027 C 46.900 585.423, 53.425 584.510, 57 584 C 75.649 581.337, 103.775 577.526, 115.500 576.073 C 120.450 575.459, 127.650 574.540, 131.500 574.030 C 146.796 572.003, 168.321 569.412, 181.500 568.011 C 187 567.427, 195.325 566.507, 200 565.968 C 211.151 564.682, 260.324 560.129, 285.500 558.050 C 297.621 557.050, 325.029 555.486, 348 554.484 C 377.053 553.217, 434.871 554.024, 460 556.048 C 491.374 558.576, 537.313 563.920, 554.500 567.043 C 557.800 567.642, 563.425 568.523, 567 569 C 570.575 569.477, 576.087 570.347, 579.250 570.934 C 582.413 571.520, 587.362 572.423, 590.250 572.940 C 597.789 574.290, 610.946 576.781, 622.500 579.047 C 628 580.125, 634.750 581.447, 637.500 581.984 C 640.250 582.521, 646.775 583.856, 652 584.951 C 669.187 588.553, 686.408 592.079, 692 593.141 C 695.025 593.715, 699.525 594.614, 702 595.138 C 704.475 595.663, 708.525 596.489, 711 596.975 C 713.475 597.460, 719.100 598.565, 723.500 599.429 C 727.900 600.293, 734.875 601.638, 739 602.416 C 743.125 603.194, 751.450 604.797, 757.500 605.977 C 763.550 607.157, 770.975 608.517, 774 608.999 C 777.025 609.481, 783.550 610.550, 788.500 611.375 C 814.458 615.701, 846.989 619.961, 869.500 621.984 C 876.100 622.577, 885.775 623.482, 891 623.996 C 896.225 624.510, 910.850 625.415, 923.500 626.007 C 936.150 626.599, 949.425 627.326, 953 627.624 C 965.543 628.667, 1006.141 629.128, 1007.317 628.241 C 1007.968 627.749, 1013.225 627.263, 1019 627.162 C 1046.475 626.677, 1110.494 623.619, 1149 620.952 C 1155.875 620.476, 1168.250 619.634, 1176.500 619.081 C 1190.666 618.131, 1201.514 617.263, 1227.750 614.979 C 1233.938 614.441, 1244.288 613.550, 1250.750 613.001 C 1257.213 612.451, 1267 611.534, 1272.500 610.963 C 1278 610.392, 1287.225 609.481, 1293 608.940 C 1320.255 606.385, 1325.065 605.909, 1333 604.982 C 1337.675 604.436, 1345.775 603.565, 1351 603.046 C 1356.225 602.527, 1364.775 601.598, 1370 600.981 C 1375.225 600.365, 1383.325 599.457, 1388 598.963 C 1396.352 598.081, 1407.659 596.742, 1421.500 594.995 C 1425.350 594.509, 1431.088 593.798, 1434.250 593.416 L 1440 592.720 1440 296.360 L 1440 0 720.500 0 L 1 0 1 296.094" stroke="none" fill="#fbc434" fill-rule="evenodd"/></svg>